<svg id="Livello_106" xmlns="http://www.w3.org/2000/svg" width="30" height="18.463" viewBox="0 0 30 18.463">
  <path id="Path_14" data-name="Path 14" d="M19.425,9.233l8.517,7.3-.775.775L18.585,9.953,15,13.022,11.466,9.989,2.928,17.308l-.814-.814,8.47-7.261L2.07,1.934l.775-.775L14.963,11.546,17.7,9.2,17.7,9.19h.016l9.371-8.034.815.815ZM30,17.31V1.157A1.155,1.155,0,0,0,28.846,0H28.82a1.072,1.072,0,0,0-.208.021V0H2.386V0H1.19L1.154,0H1.127A1.128,1.128,0,0,0,0,1.13s0,.009,0,.013,0,.009,0,.014V17.31a1.154,1.154,0,0,0,1.154,1.154H28.846A1.154,1.154,0,0,0,30,17.31" fill="#002a00"/>
</svg>
