<svg xmlns="http://www.w3.org/2000/svg" width="10.788" height="30" viewBox="0 0 10.788 30">
  <g id="Livello_9" transform="translate(-45.808)">
    <path id="Path_12" data-name="Path 12" d="M55.028,9.187h.028V0h-.028c-5.092,0-9.22,6.716-9.22,15s4.128,15,9.22,15h.026V20.817h-.026a4.585,4.585,0,0,0-2.017.465,13.951,13.951,0,0,1-1.422-6.3A13.974,13.974,0,0,1,53,8.714a4.569,4.569,0,0,0,2.032.474M56.6,8.667c0-.01,0-.019,0-.029h0V.605h0c0-.009,0-.019,0-.028a.55.55,0,1,0-1.1,0c0,.009,0,.019,0,.028h0V8.639h0c0,.009,0,.018,0,.029a.55.55,0,0,0,1.1,0m0,20.753h0V21.386h0c0-.009,0-.019,0-.029a.55.55,0,1,0-1.1,0c0,.01,0,.02,0,.029h0v8.033h0c0,.009,0,.018,0,.028a.55.55,0,0,0,1.1,0c0-.009,0-.018,0-.027" fill="#002a00"/>
  </g>
</svg>
